/* XPM */
static char *chicken[] = {
/* columns rows colors chars-per-pixel */
"44 44 8 1 ",
"  c None",
". c #4C7561",
"X c #697CD4",
"o c #5D8B90",
"O c #6C96C4",
"+ c #80C5BF",
"@ c #A6BFE8",
"# c #C0C1F3",
/* pixels */
"                    oooooooooooo            ",
"                    oooooooooooo            ",
"                    oooooooooooo            ",
"                    oooooooooooo            ",
"                oooo++++++++++++oooo        ",
"                oooo++++++++++++oooo        ",
"                oooo++++++++++++oooo        ",
"                oooo++++++++++++oooo        ",
"            oooo####################oooo    ",
"            oooo####################oooo    ",
"            oooo####################oooo    ",
"            oooo####################oooo    ",
"        oooo########....########....####oooo",
"        oooo########....########....####oooo",
"        oooo########....########....####oooo",
"        oooo########....########....####oooo",
"        oooo################XXXXXXXX####oooo",
"        oooo################XXXXXXXX####oooo",
"        oooo################XXXXXXXX####oooo",
"        oooo################XXXXXXXX####oooo",
"    oooo################################oooo",
"    oooo################################oooo",
"    oooo################################oooo",
"    oooo################################oooo",
"oooo####################################oooo",
"oooo####################################oooo",
"oooo####################################oooo",
"oooo####################################oooo",
"oooo@@@@############OOOO############@@@@oooo",
"oooo@@@@############OOOO############@@@@oooo",
"oooo@@@@############OOOO############@@@@oooo",
"oooo@@@@############OOOO############@@@@oooo",
"    ooooOOOOOOOOOOOO@@@@@@@@@@@@@@@@oooo    ",
"    ooooOOOOOOOOOOOO@@@@@@@@@@@@@@@@oooo    ",
"    ooooOOOOOOOOOOOO@@@@@@@@@@@@@@@@oooo    ",
"    ooooOOOOOOOOOOOO@@@@@@@@@@@@@@@@oooo    ",
"        ooooXXXXXXXXooooXXXXXXXXoooo        ",
"        ooooXXXXXXXXooooXXXXXXXXoooo        ",
"        ooooXXXXXXXXooooXXXXXXXXoooo        ",
"        ooooXXXXXXXXooooXXXXXXXXoooo        ",
"            oooooooo    oooooooo            ",
"            oooooooo    oooooooo            ",
"            oooooooo    oooooooo            ",
"            oooooooo    oooooooo            "
};
