/* XPM */
static char *chicken[] = {
/* columns rows colors chars-per-pixel */
"44 44 8 1 ",
"  c None",
". c #754C60",
"X c #90625D",
"o c #C49A6C",
"O c #D4C169",
"+ c #C58086",
"@ c #E8CFA6",
"# c #F3F2C0",
/* pixels */
"                    XXXXXXXXXXXX            ",
"                    XXXXXXXXXXXX            ",
"                    XXXXXXXXXXXX            ",
"                    XXXXXXXXXXXX            ",
"                XXXX++++++++++++XXXX        ",
"                XXXX++++++++++++XXXX        ",
"                XXXX++++++++++++XXXX        ",
"                XXXX++++++++++++XXXX        ",
"            XXXX####################XXXX    ",
"            XXXX####################XXXX    ",
"            XXXX####################XXXX    ",
"            XXXX####################XXXX    ",
"        XXXX########....########....####XXXX",
"        XXXX########....########....####XXXX",
"        XXXX########....########....####XXXX",
"        XXXX########....########....####XXXX",
"        XXXX################OOOOOOOO####XXXX",
"        XXXX################OOOOOOOO####XXXX",
"        XXXX################OOOOOOOO####XXXX",
"        XXXX################OOOOOOOO####XXXX",
"    XXXX################################XXXX",
"    XXXX################################XXXX",
"    XXXX################################XXXX",
"    XXXX################################XXXX",
"XXXX####################################XXXX",
"XXXX####################################XXXX",
"XXXX####################################XXXX",
"XXXX####################################XXXX",
"XXXX@@@@############oooo############@@@@XXXX",
"XXXX@@@@############oooo############@@@@XXXX",
"XXXX@@@@############oooo############@@@@XXXX",
"XXXX@@@@############oooo############@@@@XXXX",
"    XXXXoooooooooooo@@@@@@@@@@@@@@@@XXXX    ",
"    XXXXoooooooooooo@@@@@@@@@@@@@@@@XXXX    ",
"    XXXXoooooooooooo@@@@@@@@@@@@@@@@XXXX    ",
"    XXXXoooooooooooo@@@@@@@@@@@@@@@@XXXX    ",
"        XXXXOOOOOOOOXXXXOOOOOOOOXXXX        ",
"        XXXXOOOOOOOOXXXXOOOOOOOOXXXX        ",
"        XXXXOOOOOOOOXXXXOOOOOOOOXXXX        ",
"        XXXXOOOOOOOOXXXXOOOOOOOOXXXX        ",
"            XXXXXXXX    XXXXXXXX            ",
"            XXXXXXXX    XXXXXXXX            ",
"            XXXXXXXX    XXXXXXXX            ",
"            XXXXXXXX    XXXXXXXX            "
};
