/* XPM */
static char *egg[] = {
/* columns rows colors chars-per-pixel */
"64 64 7 1 ",
"  c None",
". c #90625D",
"X c #AA7959",
"o c #E8CFA6",
"O c #F3E5C2",
"+ c #F3F2C0",
"@ c #F3F4E7",
/* pixels */
"                                                                ",
"                                                                ",
"                                                                ",
"                                                                ",
"                        @@@@@@@@@@@@@@@@                        ",
"                        @@@@@@@@@@@@@@@@                        ",
"                        @@@@@@@@@@@@@@@@                        ",
"                        @@@@@@@@@@@@@@@@                        ",
"                    @@@@XXXXXXXXXXXXXXXX@@@@                    ",
"                    @@@@XXXXXXXXXXXXXXXX@@@@                    ",
"                    @@@@XXXXXXXXXXXXXXXX@@@@                    ",
"                    @@@@XXXXXXXXXXXXXXXX@@@@                    ",
"                @@@@XXXX++++++++++++++++XXXX@@@@                ",
"                @@@@XXXX++++++++++++++++XXXX@@@@                ",
"                @@@@XXXX++++++++++++++++XXXX@@@@                ",
"                @@@@XXXX++++++++++++++++XXXX@@@@                ",
"            @@@@XXXX++++++++OOOO@@@@++++++++....@@@@            ",
"            @@@@XXXX++++++++OOOO@@@@++++++++....@@@@            ",
"            @@@@XXXX++++++++OOOO@@@@++++++++....@@@@            ",
"            @@@@XXXX++++++++OOOO@@@@++++++++....@@@@            ",
"        @@@@XXXX++++++++@@@@OOOOOOOO++++++++oooo....@@@@        ",
"        @@@@XXXX++++++++@@@@OOOOOOOO++++++++oooo....@@@@        ",
"        @@@@XXXX++++++++@@@@OOOOOOOO++++++++oooo....@@@@        ",
"        @@@@XXXX++++++++@@@@OOOOOOOO++++++++oooo....@@@@        ",
"        @@@@XXXX++++@@@@@@@@@@@@++++++++++++oooo....@@@@        ",
"        @@@@XXXX++++@@@@@@@@@@@@++++++++++++oooo....@@@@        ",
"        @@@@XXXX++++@@@@@@@@@@@@++++++++++++oooo....@@@@        ",
"        @@@@XXXX++++@@@@@@@@@@@@++++++++++++oooo....@@@@        ",
"    @@@@XXXX++++++++OOOO@@@@++++++++++++++++oooooooo....@@@@    ",
"    @@@@XXXX++++++++OOOO@@@@++++++++++++++++oooooooo....@@@@    ",
"    @@@@XXXX++++++++OOOO@@@@++++++++++++++++oooooooo....@@@@    ",
"    @@@@XXXX++++++++OOOO@@@@++++++++++++++++oooooooo....@@@@    ",
"    @@@@....++++++++++++++++++++++++++++oooooooooooo....@@@@    ",
"    @@@@....++++++++++++++++++++++++++++oooooooooooo....@@@@    ",
"    @@@@....++++++++++++++++++++++++++++oooooooooooo....@@@@    ",
"    @@@@....++++++++++++++++++++++++++++oooooooooooo....@@@@    ",
"    @@@@....++++++++++++++++++++++++++++oooooooooooo....@@@@    ",
"    @@@@....++++++++++++++++++++++++++++oooooooooooo....@@@@    ",
"    @@@@....++++++++++++++++++++++++++++oooooooooooo....@@@@    ",
"    @@@@....++++++++++++++++++++++++++++oooooooooooo....@@@@    ",
"    @@@@....++++++++++++++++++++++++oooooooooooooooo....@@@@    ",
"    @@@@....++++++++++++++++++++++++oooooooooooooooo....@@@@    ",
"    @@@@....++++++++++++++++++++++++oooooooooooooooo....@@@@    ",
"    @@@@....++++++++++++++++++++++++oooooooooooooooo....@@@@    ",
"    @@@@....++++++++++++++++++++oooooooooooooooooooo....@@@@    ",
"    @@@@....++++++++++++++++++++oooooooooooooooooooo....@@@@    ",
"    @@@@....++++++++++++++++++++oooooooooooooooooooo....@@@@    ",
"    @@@@....++++++++++++++++++++oooooooooooooooooooo....@@@@    ",
"        @@@@....++++++++++++oooooooooooooooooooo....@@@@        ",
"        @@@@....++++++++++++oooooooooooooooooooo....@@@@        ",
"        @@@@....++++++++++++oooooooooooooooooooo....@@@@        ",
"        @@@@....++++++++++++oooooooooooooooooooo....@@@@        ",
"            @@@@................................@@@@            ",
"            @@@@................................@@@@            ",
"            @@@@................................@@@@            ",
"            @@@@................................@@@@            ",
"                @@@@@@@@@@@@@@@@@@@@@@@@@@@@@@@@                ",
"                @@@@@@@@@@@@@@@@@@@@@@@@@@@@@@@@                ",
"                @@@@@@@@@@@@@@@@@@@@@@@@@@@@@@@@                ",
"                @@@@@@@@@@@@@@@@@@@@@@@@@@@@@@@@                ",
"                                                                ",
"                                                                ",
"                                                                ",
"                                                                "
};
