/* XPM */
static char *Grass[] = {
/* columns rows colors chars-per-pixel */
"88 88 4 1 ",
"  c None",
". c #78A158",
"X c #A4C263",
"o c #C0D470",
/* pixels */
"            ................................................................            ",
"            ................................................................            ",
"      ............XXXXXXXXXXXXXXXX......XXXXXXXXXX....XXXXXXXXXXXXXXXX............      ",
"      ............XXXXXXXXXXXXXXXX......XXXXXXXXXX....XXXXXXXXXXXXXXXX............      ",
"    ....XXXXXXXXXXXXXXXXXXXXXXXXXXXXXXXXXXXXXXXXXXXXXXXXXXXXXXXXXXXXXXXXXXXXXX......    ",
"    ....XXXXXXXXXXXXXXXXXXXXXXXXXXXXXXXXXXXXXXXXXXXXXXXXXXXXXXXXXXXXXXXXXXXXXX......    ",
"  ....XXXXXXXXXXXXXXXXXXXXXXooXXXXXXXXXXXXXXooXXXXXXXXXXooooooooXXXXXXXXXXXXXXXXXX....  ",
"  ....XXXXXXXXXXXXXXXXXXXXXXooXXXXXXXXXXXXXXooXXXXXXXXXXooooooooXXXXXXXXXXXXXXXXXX....  ",
"  ..XXXXXXXXXXXXooXXooooooooooooooooXXooooXXooooXXooooooooooooooXXooXXXXXXXXXXXXXX....  ",
"  ..XXXXXXXXXXXXooXXooooooooooooooooXXooooXXooooXXooooooooooooooXXooXXXXXXXXXXXXXX....  ",
"  ....XXXXXXXXooooooooXXooooooooXXooooooooooooooooooooXXooooooooooooooooXXooXXXXXX....  ",
"  ....XXXXXXXXooooooooXXooooooooXXooooooooooooooooooooXXooooooooooooooooXXooXXXXXX....  ",
"......XXXXXXooooooooooooooooooooooooooooooooooXXooooooooooooooooooooooooooooooXXXXXX....",
"......XXXXXXooooooooooooooooooooooooooooooooooXXooooooooooooooooooooooooooooooXXXXXX....",
"....XXXXXXooooooooooooooooooooooooooooooooooooooooooooooooooooooooooooooooooooooXXXX....",
"....XXXXXXooooooooooooooooooooooooooooooooooooooooooooooooooooooooooooooooooooooXXXX....",
"....XXXXXXXXooooooooooooooooooooooooooooooooooooooooooooooooooooXXooooooooooooooXXXXXX..",
"....XXXXXXXXooooooooooooooooooooooooooooooooooooooooooooooooooooXXooooooooooooooXXXXXX..",
"..XXXXXXooooooooooooooooooooooooooooooooooooooooooooooooooooooooooooooooooXXooooXXXXXX..",
"..XXXXXXooooooooooooooooooooooooooooooooooooooooooooooooooooooooooooooooooXXooooXXXXXX..",
"..XXXXXXooooooooooooooXXooooooooooooooooooooooooooooooooooooooooooooooooooooooooooXX....",
"..XXXXXXooooooooooooooXXooooooooooooooooooooooooooooooooooooooooooooooooooooooooooXX....",
"..XXXXXXooXXooooooooooooooooooooooooooooooooooooooooooooooooooooooooooooooooooooXXXX....",
"..XXXXXXooXXooooooooooooooooooooooooooooooooooooooooooooooooooooooooooooooooooooXXXX....",
"..XXXXooooooooooooooooooooooooooooooooooooooooooooooooooooooooooooooooooooooooooooXXXX..",
"..XXXXooooooooooooooooooooooooooooooooooooooooooooooooooooooooooooooooooooooooooooXXXX..",
"..XXXXooooooooooooooooooooooooooooooooooooooooooooooooooooooooooooooooooooooooooooXXXX..",
"..XXXXooooooooooooooooooooooooooooooooooooooooooooooooooooooooooooooooooooooooooooXXXX..",
"..XXXXXXooooooooooooooooooooooooooooooooooooooooooooooooooooooooooooooooooooooooooXXXX..",
"..XXXXXXooooooooooooooooooooooooooooooooooooooooooooooooooooooooooooooooooooooooooXXXX..",
"..XXXXooooXXooooooooooooooooooooooooooooooooooooooooooooooooooooooooooooooooooooooXXXX..",
"..XXXXooooXXooooooooooooooooooooooooooooooooooooooooooooooooooooooooooooooooooooooXXXX..",
"..XXXXooooooooooooooooooooooooooooooooooooooooooooooooooooooooooooooooXXooooooooXXXXXX..",
"..XXXXooooooooooooooooooooooooooooooooooooooooooooooooooooooooooooooooXXooooooooXXXXXX..",
"....XXXXooooooooooXXooooooooooooooooooooooooooooooooooooooooooooooooooooooooooXXXXXX....",
"....XXXXooooooooooXXooooooooooooooooooooooooooooooooooooooooooooooooooooooooooXXXXXX....",
"....XXXXXXooooooooooooooooooooooooooooooooooooooooooooooooooooooooooooooooooooooXXXX....",
"....XXXXXXooooooooooooooooooooooooooooooooooooooooooooooooooooooooooooooooooooooXXXX....",
"....XXXXooooooooooooooooooooooooooooooooooooooooooooooooooooooooooooooooooooooXXXXXX....",
"....XXXXooooooooooooooooooooooooooooooooooooooooooooooooooooooooooooooooooooooXXXXXX....",
"..XXXXXXooooXXooooooooooooooooooooooooooooooooooooooooooooooooooooooooooooooooXXXXXXXX..",
"..XXXXXXooooXXooooooooooooooooooooooooooooooooooooooooooooooooooooooooooooooooXXXXXXXX..",
"..XXXXooooooooooooooooooooooooooooooooooooooooooooooooooooooooooooooooooooooooooXXXXXX..",
"..XXXXooooooooooooooooooooooooooooooooooooooooooooooooooooooooooooooooooooooooooXXXXXX..",
"..XXXXooooooooooooooooooooooooooooooooooooooooooooooooooooooooooooooooooooXXooooXXXXXX..",
"..XXXXooooooooooooooooooooooooooooooooooooooooooooooooooooooooooooooooooooXXooooXXXXXX..",
"..XXXXXXooooooooooooooooooooooooooooooooooooooooooooooooooooooooooooooooooooooooXXXXXX..",
"..XXXXXXooooooooooooooooooooooooooooooooooooooooooooooooooooooooooooooooooooooooXXXXXX..",
"....XXXXooooooooooooooooooooooooooooooooooooooooooooooooooooooooooooooooooooooooXXXXXX..",
"....XXXXooooooooooooooooooooooooooooooooooooooooooooooooooooooooooooooooooooooooXXXXXX..",
"....XXXXooooooooooooooooooooooooooooooooooooooooooooooooooooooooooooXXooooooooXXXXXXXX..",
"....XXXXooooooooooooooooooooooooooooooooooooooooooooooooooooooooooooXXooooooooXXXXXXXX..",
"..XXXXXXXXooooXXooooooooooooooooooooooooooooooooooooooooooooooooooooooooooooooooXXXX....",
"..XXXXXXXXooooXXooooooooooooooooooooooooooooooooooooooooooooooooooooooooooooooooXXXX....",
"..XXXXXXooooooooooooooooooooooooooooooooooooooooooooooooooooooooooooooooooXXooooooXX....",
"..XXXXXXooooooooooooooooooooooooooooooooooooooooooooooooooooooooooooooooooXXooooooXX....",
"..XXXXooooooooooooooooooooooooooooooooooooooooooooooooooooooooooooooooooooooooooooXXXX..",
"..XXXXooooooooooooooooooooooooooooooooooooooooooooooooooooooooooooooooooooooooooooXXXX..",
"..XXXXXXooooooooooooooooooooooooooooooooooooooooooooooooooooooooooooooooooooooooooXXXX..",
"..XXXXXXooooooooooooooooooooooooooooooooooooooooooooooooooooooooooooooooooooooooooXXXX..",
"..XXXXooooooooooooooooooooooooooooooooooooooooooooooooooooooooooooooooooooooooooXXXX....",
"..XXXXooooooooooooooooooooooooooooooooooooooooooooooooooooooooooooooooooooooooooXXXX....",
"..XXXXXXooooooooooooooooooooooooooooooooooooooooooooooooooooooooooooooooooooooooXXXX....",
"..XXXXXXooooooooooooooooooooooooooooooooooooooooooooooooooooooooooooooooooooooooXXXX....",
"....XXXXXXooooooooooooooooooooooooooooooooooooooooooooooooooooooooooooXXooooooXXXXXXXX..",
"....XXXXXXooooooooooooooooooooooooooooooooooooooooooooooooooooooooooooXXooooooXXXXXXXX..",
"....XXXXooooooooXXooooooooooooooooooooooooooooooooooooooooooooooooooooooooooooooXXXXXX..",
"....XXXXooooooooXXooooooooooooooooooooooooooooooooooooooooooooooooooooooooooooooXXXXXX..",
"..XXXXXXXXooooooooooooooooooooooooooooooooooooooooooooooooooooooooooooooooooooXXXXXXXX..",
"..XXXXXXXXooooooooooooooooooooooooooooooooooooooooooooooooooooooooooooooooooooXXXXXXXX..",
"..XXXXXXooooooooooooooXXooooooooooooooooooooooooooooooooooooooooooooooooooooooooXXXX....",
"..XXXXXXooooooooooooooXXooooooooooooooooooooooooooooooooooooooooooooooooooooooooXXXX....",
"....XXXXooooooooooooooooooooooooXXooooooooooooooooooXXooooooooooooooooooooooooooXXXX....",
"....XXXXooooooooooooooooooooooooXXooooooooooooooooooXXooooooooooooooooooooooooooXXXX....",
"....XXXXXXXXooooooooooooooooooooooooooooooooooooooooooooooooooooooXXooooXXooooXXXXXX....",
"....XXXXXXXXooooooooooooooooooooooooooooooooooooooooooooooooooooooXXooooXXooooXXXXXX....",
"  ..XXXXXXooooooooXXooooooooooooooooooooXXooooooooooooooooooooooooooooooooooooXXXX....  ",
"  ..XXXXXXooooooooXXooooooooooooooooooooXXooooooooooooooooooooooooooooooooooooXXXX....  ",
"  ....XXXXXXooooXXooooooooooooooooXXooooooooooooXXooooXXooooooooooooooooooooXXXXXX....  ",
"  ....XXXXXXooooXXooooooooooooooooXXooooooooooooXXooooXXooooooooooooooooooooXXXXXX....  ",
"  ....XXXXXXXXXXXXXXXXooXXooooooXXXXXXXXooooooXXXXXXXXXXXXooooooXXooooXXXXXXXXXXXX....  ",
"  ....XXXXXXXXXXXXXXXXooXXooooooXXXXXXXXooooooXXXXXXXXXXXXooooooXXooooXXXXXXXXXXXX....  ",
"    ....XXXXXXXXXXXXXXXXXXXXXXXXXXXXXXXXXXXXXXXXXXXXXXXXXXXXXXXXXXXXXXXXXXXXXXXX....    ",
"    ....XXXXXXXXXXXXXXXXXXXXXXXXXXXXXXXXXXXXXXXXXXXXXXXXXXXXXXXXXXXXXXXXXXXXXXXX....    ",
"      ............XX....XXXXXXXX......XXXXXXXXXX......XXXXXXXXXX....XXXX..........      ",
"      ............XX....XXXXXXXX......XXXXXXXXXX......XXXXXXXXXX....XXXX..........      ",
"            ................................................................            ",
"            ................................................................            "
};
