/* XPM */
static char *item[] = {
/* columns rows colors chars-per-pixel */
"88 44 5 1 ",
"  c None",
". c #957A4B",
"X c #B09643",
"o c #BFA954",
"O c #D4C169",
/* pixels */
"                                                                                        ",
"                                                                                        ",
"                                                                                        ",
"                                                                                        ",
"                                                                                        ",
"                                                                                        ",
"                                                                                        ",
"                                                                                        ",
"                            ................................                            ",
"                            ................................                            ",
"                            ................................                            ",
"                            ................................                            ",
"                        ....ooooOOOOOOOOooooooooOOOOOOOOoooo....                        ",
"                        ....ooooOOOOOOOOooooooooOOOOOOOOoooo....                        ",
"                        ....ooooOOOOOOOOooooooooOOOOOOOOoooo....                        ",
"                        ....ooooOOOOOOOOooooooooOOOOOOOOoooo....                        ",
"                    ....OOOOOOOO....XXXXXXXXXXXXXXXX....OOOOOOOO....                    ",
"                    ....OOOOOOOO....XXXXXXXXXXXXXXXX....OOOOOOOO....                    ",
"                    ....OOOOOOOO....XXXXXXXXXXXXXXXX....OOOOOOOO....                    ",
"                    ....OOOOOOOO....XXXXXXXXXXXXXXXX....OOOOOOOO....                    ",
"                    ....ooooOOOOOOOO................OOOOOOOOoooo....                    ",
"                    ....ooooOOOOOOOO................OOOOOOOOoooo....                    ",
"                    ....ooooOOOOOOOO................OOOOOOOOoooo....                    ",
"                    ....ooooOOOOOOOO................OOOOOOOOoooo....                    ",
"                    ....XXXXooooooooooooooooooooooooooooooooXXXX....                    ",
"                    ....XXXXooooooooooooooooooooooooooooooooXXXX....                    ",
"                    ....XXXXooooooooooooooooooooooooooooooooXXXX....                    ",
"                    ....XXXXooooooooooooooooooooooooooooooooXXXX....                    ",
"                        ....XXXXXXXXooooooooooooXXXXXXXXoooo....                        ",
"                        ....XXXXXXXXooooooooooooXXXXXXXXoooo....                        ",
"                        ....XXXXXXXXooooooooooooXXXXXXXXoooo....                        ",
"                        ....XXXXXXXXooooooooooooXXXXXXXXoooo....                        ",
"                            ................................                            ",
"                            ................................                            ",
"                            ................................                            ",
"                            ................................                            ",
"                                                                                        ",
"                                                                                        ",
"                                                                                        ",
"                                                                                        ",
"                                                                                        ",
"                                                                                        ",
"                                                                                        ",
"                                                                                        "
};
