/* XPM */
static char *player_s2[] = {
/* columns rows colors chars-per-pixel */
"64 64 8 1 ",
"  c None",
". c #EAE178",
"X c #5C4E92",
"o c #766DAA",
"O c #E8B5AC",
"+ c #DDD5DE",
"@ c #F3D8C5",
"# c #F3F2C0",
/* pixels */
"        XXXXXXXXXXXXXXXX                    XXXXXXXXXXXX        ",
"        XXXXXXXXXXXXXXXX                    XXXXXXXXXXXX        ",
"        XXXXXXXXXXXXXXXX                    XXXXXXXXXXXX        ",
"        XXXXXXXXXXXXXXXX                    XXXXXXXXXXXX        ",
"    XXXX############XXXXXXXXXXXXXXXXXXXXXXXX############XXXX    ",
"    XXXX############XXXXXXXXXXXXXXXXXXXXXXXX############XXXX    ",
"    XXXX############XXXXXXXXXXXXXXXXXXXXXXXX############XXXX    ",
"    XXXX############XXXXXXXXXXXXXXXXXXXXXXXX############XXXX    ",
"    XXXXOOOOOOOO########++++++++++++++++########OOOOOOOOXXXX    ",
"    XXXXOOOOOOOO########++++++++++++++++########OOOOOOOOXXXX    ",
"    XXXXOOOOOOOO########++++++++++++++++########OOOOOOOOXXXX    ",
"    XXXXOOOOOOOO########++++++++++++++++########OOOOOOOOXXXX    ",
"    XXXXOOOOOOOO########++++++++++++++++########OOOOOOOOXXXX    ",
"    XXXXOOOOOOOO########++++++++++++++++########OOOOOOOOXXXX    ",
"    XXXXOOOOOOOO########++++++++++++++++########OOOOOOOOXXXX    ",
"    XXXXOOOOOOOO########++++++++++++++++########OOOOOOOOXXXX    ",
"        XXXX############++++++++++++++++############XXXX        ",
"        XXXX############++++++++++++++++############XXXX        ",
"        XXXX############++++++++++++++++############XXXX        ",
"        XXXX############++++++++++++++++############XXXX        ",
"    XXXXXXXX########################################XXXXXXXX    ",
"    XXXXXXXX########################################XXXXXXXX    ",
"    XXXXXXXX########################################XXXXXXXX    ",
"    XXXXXXXX########################################XXXXXXXX    ",
"        XXXX####XXXX########################XXXX####XXXX        ",
"        XXXX####XXXX########################XXXX####XXXX        ",
"        XXXX####XXXX########################XXXX####XXXX        ",
"        XXXX####XXXX########################XXXX####XXXX        ",
"    XXXXXXXX########################################XXXXXXXX    ",
"    XXXXXXXX########################################XXXXXXXX    ",
"    XXXXXXXX########################################XXXXXXXX    ",
"    XXXXXXXX########################################XXXXXXXX    ",
"        XXXX@@@@@@@@########################@@@@@@@@XXXX        ",
"        XXXX@@@@@@@@########################@@@@@@@@XXXX        ",
"        XXXX@@@@@@@@########################@@@@@@@@XXXX        ",
"        XXXX@@@@@@@@########################@@@@@@@@XXXX        ",
"            XXXXXXXXooooooooooooooooooooooooXXXXXXXX            ",
"            XXXXXXXXooooooooooooooooooooooooXXXXXXXX            ",
"            XXXXXXXXooooooooooooooooooooooooXXXXXXXX            ",
"            XXXXXXXXooooooooooooooooooooooooXXXXXXXX            ",
"                XXXXoooooooo....####ooooooooXXXX                ",
"                XXXXoooooooo....####ooooooooXXXX                ",
"                XXXXoooooooo....####ooooooooXXXX                ",
"                XXXXoooooooo....####ooooooooXXXX                ",
"            XXXX++++########........########++++XXXX            ",
"            XXXX++++########........########++++XXXX            ",
"            XXXX++++########........########++++XXXX            ",
"            XXXX++++########........########++++XXXX            ",
"            XXXX++++########################++++XXXX            ",
"            XXXX++++########################++++XXXX            ",
"            XXXX++++########################++++XXXX            ",
"            XXXX++++########################++++XXXX            ",
"                XXXX########################XXXX                ",
"                XXXX########################XXXX                ",
"                XXXX########################XXXX                ",
"                XXXX########################XXXX                ",
"                XXXX++++++++XXXXXXXX++++++++XXXX                ",
"                XXXX++++++++XXXXXXXX++++++++XXXX                ",
"                XXXX++++++++XXXXXXXX++++++++XXXX                ",
"                XXXX++++++++XXXXXXXX++++++++XXXX                ",
"                    XXXXXXXX        XXXXXXXX                    ",
"                    XXXXXXXX        XXXXXXXX                    ",
"                    XXXXXXXX        XXXXXXXX                    ",
"                    XXXXXXXX        XXXXXXXX                    "
};
