/* XPM */
static char *water[] = {
/* columns rows colors chars-per-pixel */
"256 64 2 1 ",
"  c #B1E0BE",
". c #9BD4C3",
/* pixels */
"....................................................                ....................................................            ....................................................        ....................................................            ",
"....................................................                ....................................................            ....................................................        ....................................................            ",
"....................................................                ....................................................            ....................................................        ....................................................            ",
"....................................................                ....................................................            ....................................................        ....................................................            ",
"................................................................................................................................................................................................................................................................",
"................................................................................................................................................................................................................................................................",
"................................................................................................................................................................................................................................................................",
"................................................................................................................................................................................................................................................................",
"............................            ....................................................            ........................................................            ....................................................            ....................",
"............................            ....................................................            ........................................................            ....................................................            ....................",
"............................            ....................................................            ........................................................            ....................................................            ....................",
"............................            ....................................................            ........................................................            ....................................................            ....................",
"................................................................................................................................................................................................................................................................",
"................................................................................................................................................................................................................................................................",
"................................................................................................................................................................................................................................................................",
"................................................................................................................................................................................................................................................................",
"................................................................................................................................................................................................................................................................",
"................................................................................................................................................................................................................................................................",
"................................................................................................................................................................................................................................................................",
"................................................................................................................................................................................................................................................................",
"            ................................................                    ................................................                ................................................            ................................................    ",
"            ................................................                    ................................................                ................................................            ................................................    ",
"            ................................................                    ................................................                ................................................            ................................................    ",
"            ................................................                    ................................................                ................................................            ................................................    ",
"................................................................................................................................................................................................................................................................",
"................................................................................................................................................................................................................................................................",
"................................................................................................................................................................................................................................................................",
"................................................................................................................................................................................................................................................................",
"................................................................................................................................................................................................................................................................",
"................................................................................................................................................................................................................................................................",
"................................................................................................................................................................................................................................................................",
"................................................................................................................................................................................................................................................................",
"....................................                ....................................................                ................................................                ............................................                ............",
"....................................                ....................................................                ................................................                ............................................                ............",
"....................................                ....................................................                ................................................                ............................................                ............",
"....................................                ....................................................                ................................................                ............................................                ............",
"................................................................................................................................................................................................................................................................",
"................................................................................................................................................................................................................................................................",
"................................................................................................................................................................................................................................................................",
"................................................................................................................................................................................................................................................................",
"................        ........................................................        ............................................................        ........................................................        ....................................",
"................        ........................................................        ............................................................        ........................................................        ....................................",
"................        ........................................................        ............................................................        ........................................................        ....................................",
"................        ........................................................        ............................................................        ........................................................        ....................................",
"................................................................................................................................................................................................................................................................",
"................................................................................................................................................................................................................................................................",
"................................................................................................................................................................................................................................................................",
"................................................................................................................................................................................................................................................................",
"....................................................            ....................................................                ....................................................            ....................................................        ",
"....................................................            ....................................................                ....................................................            ....................................................        ",
"....................................................            ....................................................                ....................................................            ....................................................        ",
"....................................................            ....................................................                ....................................................            ....................................................        ",
"............................            ........................................................            ....................................................            ................................................            ........................",
"............................            ........................................................            ....................................................            ................................................            ........................",
"............................            ........................................................            ....................................................            ................................................            ........................",
"............................            ........................................................            ....................................................            ................................................            ........................",
"................................................................................................................................................................................................................................................................",
"................................................................................................................................................................................................................................................................",
"................................................................................................................................................................................................................................................................",
"................................................................................................................................................................................................................................................................",
"................................................................................................................................................................................................................................................................",
"................................................................................................................................................................................................................................................................",
"................................................................................................................................................................................................................................................................",
"................................................................................................................................................................................................................................................................"
};
